<svg height="64" width="64" xmlns="http://www.w3.org/2000/svg"><circle cx="32" cy="32" fill="#76C2AF" r="32"/><path d="M29.125 44.5c-.485 0-.943-.235-1.225-.635L17.617 29.308l-7.785 5.19a1.5 1.5 0 1 1-1.664-2.496l9-6a1.5 1.5 0 0 1 2.057.383l9.733 13.779 10.724-19.755a1.5 1.5 0 0 1 2.507-.199l13 16.875a1.501 1.501 0 0 1-2.377 1.831l-11.593-15.05-10.775 19.85a1.5 1.5 0 0 1-1.319.784z" fill="#FFF"/><circle cx="41" cy="23.125" fill="#C75C5C" r="4.375"/><path d="M29.125 46.5c-.485 0-.943-.235-1.225-.635L17.617 31.308l-7.785 5.19a1.5 1.5 0 0 1-1.664-2.496l9-6a1.498 1.498 0 0 1 2.057.383l9.733 13.779L39.682 22.41a1.498 1.498 0 0 1 2.507-.199l13 16.875a1.501 1.501 0 0 1-2.377 1.831l-11.593-15.05-10.776 19.849a1.5 1.5 0 0 1-1.318.784z" fill="#231F20" opacity=".2"/><path d="M29.125 44.5c-.485 0-.943-.235-1.225-.635L17.617 29.308l-7.785 5.19a1.5 1.5 0 1 1-1.664-2.496l9-6a1.5 1.5 0 0 1 2.057.383l9.733 13.779 10.724-19.755a1.5 1.5 0 0 1 2.507-.199l13 16.875a1.501 1.501 0 0 1-2.377 1.831l-11.593-15.05-10.775 19.85a1.5 1.5 0 0 1-1.319.784z" fill="#FFF"/><circle cx="41" cy="25.125" fill="#231F20" r="4.375" opacity=".2"/><circle cx="41" cy="23.125" fill="#4F5D73" r="4.375"/></svg>