<svg xmlns="http://www.w3.org/2000/svg" height="198.423" width="340.16"><defs><clipPath id="a"><path d="M0 158.738h272.128V0H0v158.738z"/></clipPath></defs><g clip-path="url(#a)" transform="matrix(1.25 0 0 -1.25 0 198.423)"><path d="M155.302 48.88L127.84 36.788a2.13 2.13 0 0 0-1.433-.027l-9.985 4.38 2.472 2.253c.647-.15 2.73-.497 3.387-.497 1.06 0 2.119.199 3.116.602l22.704 8.879-3.458 5.546-21.567-8.625a2.138 2.138 0 0 0-1.527-.024l-9.073 3.537-3.72-5.53 4.376-1.592-2.893-2.043a2.168 2.168 0 0 0-1.25.065l-9.443 3.982-3.735-5.73 11.036-4.122a8.42 8.42 0 0 1 5.987.095l.345.135 1.707 1.21-2.133-3.573 11.32-4.748.139-.054a8.348 8.348 0 0 1 2.875-.507c1.055 0 2.113.205 3.11.608l28.963 12.3-3.86 5.574z" fill="#b6a24d"/><path d="M89.063 98.986l12.067 11.311-8.395-15.65 20.367 23.756-8.296-12.254 10.653 11.405-8.111-14.139 15.654 15.366-9.238-16.872 17.718 17.436 12.632-16.215-2.259 6.6 8.105-9.709-.752 7.821 8.862-9.52-2.735 9.148 10.558-12.072-8.765 17.725 24.602-22.336-25.168 25.92-9.806-6.977-14.613 15.84-5.75-4.81-6.693 7.92-15.647-17.252-5.754 4.527-23.66-25.168 21.115 18.475-6.691-10.276z" fill="#2b2b2a"/><path d="M201.137 76.726c-.035-1.148-.69-2.26-1.685-2.791a3.05 3.05 0 0 0-.531-.23 69.2 69.2 0 0 0-.874-14.666c-.812-4.928-2.117-9.761-3.781-14.448 1.477 4.748 2.595 9.61 3.212 14.529.606 4.787.73 9.627.322 14.408-.488.02-.933.06-1.401.093-.964.076-1.932.15-2.897.275.965.128 1.933.203 2.897.283.479.035.982.052 1.432.102.42.049.819.18 1.155.423.679.462 1.089 1.24 1.06 2.037l-.025 2.886.03 2.897c.027.786-.386 1.573-1.065 2.04a2.526 2.526 0 0 1-1.155.417c-.45.044-.953.065-1.432.1a55.74 55.74 0 0 0-2.897.28c.965.124 1.933.198 2.897.28.468.034.913.066 1.4.084.41 4.788.285 9.626-.321 14.41-.617 4.924-1.735 9.782-3.212 14.53 1.664-4.687 2.969-9.512 3.78-14.442a69.22 69.22 0 0 0 .875-14.67c.186-.063.36-.14.53-.232.996-.531 1.647-1.641 1.68-2.784l.036-2.91-.03-2.901zM79.649 81.78a1325.93 1325.93 0 0 0 96.75 0 2578.948 2578.948 0 0 0-96.75 0m120.254 4.526c.14 19.98-4.537 33.564-12.134 43.288 3.236-11.486 5.208-23.275 5.016-35.561v-5.101a3.359 3.359 0 0 0-1.478-2.781h-2.476a1.737 1.737 0 0 1-1.735-1.738v-5l-.616 5.162H71.336a4.659 4.659 0 0 1 0-9.317h115.76v-.842c0-.96.777-1.737 1.735-1.737h2.317a3.345 3.345 0 0 0 1.637-2.88v-5.097c.192-12.29-1.78-24.07-5.016-35.557 7.597 9.72 12.275 23.294 12.138 43.26.06.058.124.11.186.159 1.374 1.243 2.138 3.038 2.138 4.888v.672l.439.1.15-2.538c1.518.627 2.732 1.895 2.62 3.727-.173 2.916-2.876 4.946-5.537 6.893M75.332 69.639c.205-.35.307-.76.307-1.223 0-.933-.525-1.4-1.574-1.4h-3.671v1.05h3.671c.35 0 .525.176.525.525 0 .349-.176.524-.525.524h-1.573v1.048h1.573c.35 0 .525.175.525.524 0 .35-.176.526-.525.526h-3.671v1.049h3.89c.902 0 1.354-.524 1.354-1.575 0-.35-.101-.698-.305-1.048" fill="#2b2b2a"/><path d="M84.467 68.502v2.273c0 .35-.175.525-.524.525h-2.098c-.35 0-.525-.175-.525-.525v-2.273c0-.35.175-.524.525-.524h2.098c.35 0 .524.174.524.524m1.05 0c0-1.048-.525-1.572-1.574-1.572h-2.098c-1.049 0-1.574.524-1.574 1.572v2.273c0 1.048.525 1.573 1.574 1.573h2.098c1.05 0 1.573-.525 1.573-1.573v-2.273zm9.877-1.486h-1.049v4.197h-1.574c-.256 0-.431-.175-.524-.526l-1.032-3.671h-1.066c.647 2.099.996 3.322 1.049 3.67.309 1.052.833 1.576 1.573 1.576h2.623v-5.246zm8.829 1.486v2.273c0 .35-.175.525-.524.525H101.6c-.35 0-.525-.175-.525-.525v-2.273c0-.35.175-.524.525-.524h2.098c.349 0 .524.174.524.524m1.049 0c0-1.048-.524-1.572-1.573-1.572H101.6c-1.05 0-1.574.524-1.574 1.572v2.273c0 1.048.525 1.573 1.574 1.573h2.098c1.049 0 1.573-.525 1.573-1.573v-2.273zm9.879 2.711h-2.099v-4.197h-1.049v4.197h-2.098v1.049h5.245v-1.05zm8.828-2.711v2.273c0 .35-.175.525-.524.525h-2.098c-.35 0-.525-.175-.525-.525v-2.273c0-.35.175-.524.525-.524h2.098c.349 0 .524.174.524.524m1.049 0c0-1.048-.525-1.572-1.573-1.572h-2.098c-1.049 0-1.574.524-1.574 1.572v2.273c0 1.048.525 1.573 1.574 1.573h2.098c1.048 0 1.573-.525 1.573-1.573v-2.273zm19.406 0v2.273c0 .35-.175.525-.524.525h-2.1c-.35 0-.523-.175-.523-.525v-2.273c0-.35.174-.524.524-.524h2.099c.349 0 .524.174.524.524m-5.245-1.486h-1.05v5.246h1.05v-2.099h1.049v.612c0 1.048.524 1.573 1.573 1.573h2.099c1.047 0 1.573-.525 1.573-1.573v-2.273c0-1.048-.526-1.572-1.573-1.572h-2.1c-1.048 0-1.572.524-1.572 1.572v.612h-1.05v-2.098zm15.122 1.05v2.71c0 .35-.175.523-.525.523h-1.574c-.349 0-.524-.174-.524-.524v-2.709h2.623zm1.048 0h.525v-2.099h-1.049v1.048h-3.67v-1.048h-1.05v2.1h.524v2.708c0 1.048.526 1.572 1.573 1.572h1.574c1.05 0 1.574-.524 1.574-1.572v-2.709zm9.355.436v2.273c0 .35-.175.525-.525.525h-2.097c-.35 0-.524-.175-.524-.525v-2.273c0-.35.174-.524.524-.524h2.097c.35 0 .525.174.525.524m1.049 0c0-1.048-.525-1.572-1.574-1.572h-2.097c-1.05 0-1.574.524-1.574 1.572v2.273c0 1.048.524 1.573 1.574 1.573h2.097c1.049 0 1.574-.525 1.574-1.573v-2.273zm10.927-1.486h-1.05v3.287l-2.098-3.287-2.098 3.287v-3.287h-1.049v5.246h1.05l2.097-3.287 2.097 3.287h1.05v-5.246zm11.45 5.246h-1.048v-5.246h1.048v5.246zm-2.621-3.148c0 .35-.175.525-.526.525h-2.622v-1.573h2.622c.351 0 .526.175.526.525v.523zm-.526-2.098h-3.671v5.246h1.049v-1.575h2.622c1.049 0 1.573-.524 1.573-1.573v-.523c0-1.051-.524-1.575-1.573-1.575" fill="#2b2b2a"/></g></svg>