<?xml version="1.0" encoding="UTF-8" standalone="no"?>
<svg
   xmlns:dc="http://purl.org/dc/elements/1.1/"
   xmlns:cc="http://creativecommons.org/ns#"
   xmlns:rdf="http://www.w3.org/1999/02/22-rdf-syntax-ns#"
   xmlns:svg="http://www.w3.org/2000/svg"
   xmlns="http://www.w3.org/2000/svg"
   viewBox="0 0 340.16 198.4225"
   height="198.4225"
   width="340.16"
   xml:space="preserve"
   version="1.1"
   id="svg2"><metadata
     id="metadata8"><rdf:RDF><cc:Work
         rdf:about=""><dc:format>image/svg+xml</dc:format><dc:type
           rdf:resource="http://purl.org/dc/dcmitype/StillImage" /></cc:Work></rdf:RDF></metadata><defs
     id="defs6"><clipPath
       id="clipPath16"
       clipPathUnits="userSpaceOnUse"><path
         id="path18"
         d="m 0,158.738 272.128,0 L 272.128,0 0,0 0,158.738 Z" /></clipPath></defs><g
     transform="matrix(1.25,0,0,-1.25,0,198.4225)"
     id="g10"><g
       id="g12"><g
         clip-path="url(#clipPath16)"
         id="g14"><g
           transform="translate(155.3018,48.8809)"
           id="g20"><path
             id="path22"
             style="fill:#b6a24d;fill-opacity:1;fill-rule:nonzero;stroke:none"
             d="m 0,0 -27.461,-12.094 c -0.459,-0.175 -0.965,-0.183 -1.433,-0.027 l -9.985,4.38 2.472,2.253 c 0.647,-0.15 2.731,-0.497 3.387,-0.497 1.06,0 2.119,0.199 3.116,0.602 L -7.2,3.496 -10.658,9.042 -32.225,0.417 c -0.489,-0.195 -1.031,-0.205 -1.527,-0.024 l -9.073,3.537 -3.719,-5.53 4.375,-1.592 -2.893,-2.043 c -0.412,-0.101 -0.847,-0.08 -1.25,0.065 l -9.443,3.982 -3.735,-5.729 11.036,-4.123 c 0.929,-0.337 1.902,-0.503 2.871,-0.503 1.056,0 2.118,0.201 3.116,0.598 l 0.345,0.135 1.707,1.211 -2.133,-3.574 11.321,-4.748 0.138,-0.054 c 0.932,-0.341 1.902,-0.507 2.875,-0.507 1.055,0 2.113,0.205 3.11,0.608 L 3.859,-5.574 0,0 Z" /></g><g
           transform="translate(89.063,98.9863)"
           id="g24"><path
             id="path26"
             style="fill:#fff;fill-opacity:1;fill-rule:nonzero;stroke:none"
             d="M 0,0 12.067,11.311 3.672,-4.34 24.039,19.417 15.743,7.163 26.396,18.568 18.285,4.429 33.939,19.795 24.701,2.923 42.419,20.359 55.051,4.144 l -2.259,6.6 8.105,-9.709 -0.752,7.821 8.862,-9.52 L 66.272,8.484 76.83,-3.588 68.065,14.137 92.667,-8.199 67.499,17.721 57.693,10.744 43.08,26.584 37.33,21.773 30.637,29.693 14.99,12.442 9.236,16.969 -14.424,-8.199 6.691,10.276 0,0 Z" /></g><g
           transform="translate(201.1367,76.7256)"
           id="g28"><path
             id="path30"
             style="fill:#fff;fill-opacity:1;fill-rule:nonzero;stroke:none"
             d="m 0,0 c -0.035,-1.148 -0.69,-2.259 -1.685,-2.791 -0.17,-0.093 -0.345,-0.169 -0.531,-0.229 0.239,-4.912 -0.073,-9.834 -0.874,-14.667 -0.812,-4.928 -2.117,-9.761 -3.781,-14.448 1.477,4.748 2.595,9.61 3.212,14.529 0.606,4.787 0.731,9.627 0.322,14.408 -0.488,0.02 -0.933,0.061 -1.401,0.093 -0.964,0.076 -1.932,0.15 -2.897,0.275 0.965,0.128 1.933,0.203 2.897,0.283 0.479,0.035 0.982,0.052 1.432,0.102 0.421,0.049 0.819,0.18 1.155,0.423 0.679,0.462 1.089,1.241 1.061,2.037 l -0.026,2.886 0.03,2.897 c 0.027,0.786 -0.386,1.573 -1.065,2.041 -0.336,0.231 -0.734,0.369 -1.155,0.416 -0.45,0.044 -0.953,0.065 -1.432,0.1 -0.964,0.076 -1.932,0.153 -2.897,0.28 0.965,0.124 1.933,0.198 2.897,0.28 0.468,0.034 0.913,0.066 1.401,0.084 0.409,4.788 0.284,9.626 -0.322,14.411 -0.617,4.923 -1.735,9.781 -3.212,14.529 1.664,-4.687 2.969,-9.512 3.781,-14.442 0.801,-4.831 1.113,-9.758 0.874,-14.67 C -2.03,8.764 -1.855,8.688 -1.685,8.595 -0.69,8.064 -0.039,6.954 -0.006,5.811 L 0.03,2.901 0,0 Z m -121.488,5.054 c 32.517,1.18 64.766,1.174 96.751,0 -32.249,-0.605 -64.502,-0.605 -96.751,0 M -1.234,9.58 c 0.141,19.98 -4.537,33.564 -12.134,43.288 3.236,-11.486 5.208,-23.275 5.016,-35.561 l 0,-5.101 c 0,-1.157 -0.589,-2.178 -1.478,-2.781 l -2.476,0 c -0.958,0 -1.735,-0.779 -1.735,-1.738 l 0,-5 -0.616,5.162 -115.144,0 c -2.572,0 -4.656,-2.089 -4.656,-4.658 0,-2.572 2.084,-4.659 4.656,-4.659 l 115.76,0 0,-0.842 c 0,-0.96 0.777,-1.737 1.735,-1.737 l 2.317,0 c 0.982,-0.586 1.637,-1.654 1.637,-2.88 l 0,-5.097 c 0.192,-12.289 -1.78,-24.069 -5.016,-35.557 7.597,9.72 12.275,23.294 12.138,43.261 0.06,0.057 0.124,0.109 0.186,0.158 1.374,1.243 2.138,3.038 2.138,4.888 l 0,0.672 0.439,0.1 0.15,-2.538 C 3.201,-0.413 4.415,0.855 4.304,2.687 4.13,5.603 1.427,7.633 -1.234,9.58" /></g><g
           transform="translate(75.3325,69.6387)"
           id="g32"><path
             id="path34"
             style="fill:#fff;fill-opacity:1;fill-rule:nonzero;stroke:none"
             d="m 0,0 c 0.204,-0.35 0.306,-0.759 0.306,-1.223 0,-0.933 -0.524,-1.4 -1.573,-1.4 l -3.672,0 0,1.051 3.672,0 c 0.349,0 0.524,0.175 0.524,0.524 0,0.349 -0.175,0.524 -0.524,0.524 l -1.574,0 0,1.048 1.574,0 c 0.349,0 0.524,0.175 0.524,0.524 0,0.351 -0.175,0.526 -0.524,0.526 l -3.672,0 0,1.049 3.89,0 c 0.903,0 1.355,-0.524 1.355,-1.575 C 0.306,0.699 0.204,0.35 0,0" /></g><g
           transform="translate(84.4673,68.502)"
           id="g36"><path
             id="path38"
             style="fill:#fff;fill-opacity:1;fill-rule:nonzero;stroke:none"
             d="m 0,0 0,2.273 c 0,0.35 -0.175,0.525 -0.524,0.525 l -2.098,0 c -0.35,0 -0.525,-0.175 -0.525,-0.525 l 0,-2.273 c 0,-0.35 0.175,-0.524 0.525,-0.524 l 2.098,0 C -0.175,-0.524 0,-0.35 0,0 m 1.049,0 c 0,-1.048 -0.524,-1.572 -1.573,-1.572 l -2.098,0 c -1.049,0 -1.574,0.524 -1.574,1.572 l 0,2.273 c 0,1.048 0.525,1.573 1.574,1.573 l 2.098,0 c 1.049,0 1.573,-0.525 1.573,-1.573 L 1.049,0 Z" /></g><g
           transform="translate(95.394,67.0156)"
           id="g40"><path
             id="path42"
             style="fill:#fff;fill-opacity:1;fill-rule:nonzero;stroke:none"
             d="m 0,0 -1.049,0 0,4.197 -1.574,0 c -0.256,0 -0.431,-0.175 -0.524,-0.526 L -4.179,0 -5.245,0 c 0.647,2.099 0.996,3.322 1.049,3.671 0.309,1.051 0.833,1.575 1.573,1.575 L 0,5.246 0,0 Z" /></g><g
           transform="translate(104.2227,68.502)"
           id="g44"><path
             id="path46"
             style="fill:#fff;fill-opacity:1;fill-rule:nonzero;stroke:none"
             d="m 0,0 0,2.273 c 0,0.35 -0.175,0.525 -0.524,0.525 l -2.098,0 c -0.35,0 -0.525,-0.175 -0.525,-0.525 l 0,-2.273 c 0,-0.35 0.175,-0.524 0.525,-0.524 l 2.098,0 C -0.175,-0.524 0,-0.35 0,0 m 1.049,0 c 0,-1.048 -0.524,-1.572 -1.573,-1.572 l -2.098,0 c -1.049,0 -1.574,0.524 -1.574,1.572 l 0,2.273 c 0,1.048 0.525,1.573 1.574,1.573 l 2.098,0 c 1.049,0 1.573,-0.525 1.573,-1.573 L 1.049,0 Z" /></g><g
           transform="translate(115.1494,71.2129)"
           id="g48"><path
             id="path50"
             style="fill:#fff;fill-opacity:1;fill-rule:nonzero;stroke:none"
             d="m 0,0 -2.098,0 0,-4.197 -1.049,0 0,4.197 -2.098,0 0,1.049 L 0,1.049 0,0 Z" /></g><g
           transform="translate(123.978,68.502)"
           id="g52"><path
             id="path54"
             style="fill:#fff;fill-opacity:1;fill-rule:nonzero;stroke:none"
             d="m 0,0 0,2.273 c 0,0.35 -0.175,0.525 -0.524,0.525 l -2.098,0 c -0.35,0 -0.525,-0.175 -0.525,-0.525 l 0,-2.273 c 0,-0.35 0.175,-0.524 0.525,-0.524 l 2.098,0 C -0.175,-0.524 0,-0.35 0,0 m 1.049,0 c 0,-1.048 -0.525,-1.572 -1.573,-1.572 l -2.098,0 c -1.049,0 -1.574,0.524 -1.574,1.572 l 0,2.273 c 0,1.048 0.525,1.573 1.574,1.573 l 2.098,0 c 1.048,0 1.573,-0.525 1.573,-1.573 L 1.049,0 Z" /></g><g
           transform="translate(144.4326,68.502)"
           id="g56"><path
             id="path58"
             style="fill:#fff;fill-opacity:1;fill-rule:nonzero;stroke:none"
             d="m 0,0 0,2.273 c 0,0.35 -0.175,0.525 -0.524,0.525 l -2.099,0 c -0.35,0 -0.524,-0.175 -0.524,-0.525 l 0,-2.273 c 0,-0.35 0.174,-0.524 0.524,-0.524 l 2.099,0 C -0.175,-0.524 0,-0.35 0,0 m -5.245,-1.486 -1.049,0 0,5.246 1.049,0 0,-2.099 1.049,0 0,0.612 c 0,1.048 0.524,1.573 1.573,1.573 l 2.099,0 c 1.047,0 1.573,-0.525 1.573,-1.573 L 1.049,0 c 0,-1.048 -0.526,-1.572 -1.573,-1.572 l -2.099,0 c -1.049,0 -1.573,0.524 -1.573,1.572 l 0,0.612 -1.049,0 0,-2.098 z" /></g><g
           transform="translate(154.3105,68.0664)"
           id="g60"><path
             id="path62"
             style="fill:#fff;fill-opacity:1;fill-rule:nonzero;stroke:none"
             d="m 0,0 0,2.709 c 0,0.35 -0.175,0.524 -0.525,0.524 l -1.574,0 c -0.349,0 -0.524,-0.174 -0.524,-0.524 L -2.623,0 0,0 Z m 1.048,0 0.525,0 0,-2.099 -1.049,0 0,1.048 -3.67,0 0,-1.048 -1.05,0 0,2.099 0.524,0 0,2.709 c 0,1.048 0.526,1.572 1.573,1.572 l 1.574,0 c 1.049,0 1.573,-0.524 1.573,-1.572 L 1.048,0 Z" /></g><g
           transform="translate(164.7129,68.502)"
           id="g64"><path
             id="path66"
             style="fill:#fff;fill-opacity:1;fill-rule:nonzero;stroke:none"
             d="m 0,0 0,2.273 c 0,0.35 -0.175,0.525 -0.525,0.525 l -2.097,0 c -0.35,0 -0.524,-0.175 -0.524,-0.525 l 0,-2.273 c 0,-0.35 0.174,-0.524 0.524,-0.524 l 2.097,0 C -0.175,-0.524 0,-0.35 0,0 m 1.049,0 c 0,-1.048 -0.525,-1.572 -1.574,-1.572 l -2.097,0 c -1.05,0 -1.574,0.524 -1.574,1.572 l 0,2.273 c 0,1.048 0.524,1.573 1.574,1.573 l 2.097,0 c 1.049,0 1.574,-0.525 1.574,-1.573 L 1.049,0 Z" /></g><g
           transform="translate(176.6885,67.0156)"
           id="g68"><path
             id="path70"
             style="fill:#fff;fill-opacity:1;fill-rule:nonzero;stroke:none"
             d="m 0,0 -1.05,0 0,3.287 L -3.147,0 l -2.098,3.287 0,-3.287 -1.049,0 0,5.246 1.049,0 2.098,-3.287 2.097,3.287 1.05,0 L 0,0 Z" /></g><path
           id="path72"
           style="fill:#fff;fill-opacity:1;fill-rule:nonzero;stroke:none"
           d="m 188.139,72.262 -1.048,0 0,-5.246 1.048,0 0,5.246 z m -2.621,-3.148 c 0,0.35 -0.175,0.525 -0.526,0.525 l -2.622,0 0,-1.573 2.622,0 c 0.351,0 0.526,0.175 0.526,0.525 l 0,0.523 z m -0.526,-2.098 -3.671,0 0,5.246 1.049,0 0,-1.575 2.622,0 c 1.049,0 1.573,-0.524 1.573,-1.573 l 0,-0.523 c 0,-1.051 -0.524,-1.575 -1.573,-1.575" /></g></g></g></svg>